<svg width="138" height="30" viewBox="0 0 138 30" fill="none" xmlns="http://www.w3.org/2000/svg">
<path d="M34.152 22V10.08H38.04C39.2987 10.08 40.392 10.336 41.32 10.848C42.2587 11.3493 42.984 12.048 43.496 12.944C44.008 13.8293 44.264 14.8587 44.264 16.032C44.264 17.1947 44.008 18.2293 43.496 19.136C42.984 20.032 42.2587 20.736 41.32 21.248C40.392 21.7493 39.2987 22 38.04 22H34.152ZM36.328 20.08H38.088C38.8987 20.08 39.5973 19.9147 40.184 19.584C40.7813 19.2427 41.2453 18.7733 41.576 18.176C41.9067 17.568 42.072 16.8533 42.072 16.032C42.072 15.2 41.9067 14.4853 41.576 13.888C41.2453 13.2907 40.7813 12.8267 40.184 12.496C39.5973 12.1653 38.8987 12 38.088 12H36.328V20.08ZM47.5354 22L51.6474 10.08H54.4634L58.5754 22H56.2074L55.3594 19.44H50.7514L49.8874 22H47.5354ZM51.3754 17.52H54.7354L52.7514 11.584H53.3594L51.3754 17.52ZM64.2171 22V12H61.1291V10.08H69.4491V12H66.4091V22H64.2171ZM72.0041 22L76.1161 10.08H78.9321L83.0441 22H80.6761L79.8281 19.44H75.2201L74.3561 22H72.0041ZM75.8441 17.52H79.2041L77.2201 11.584H77.8281L75.8441 17.52ZM91.4705 22.192C90.7132 22.192 90.0092 22.0533 89.3585 21.776C88.7185 21.4987 88.1638 21.1147 87.6945 20.624C87.2358 20.1227 86.8998 19.5413 86.6865 18.88L88.4945 18.096C88.7825 18.7787 89.1985 19.3173 89.7425 19.712C90.2865 20.096 90.8998 20.288 91.5825 20.288C91.9665 20.288 92.2972 20.2293 92.5745 20.112C92.8625 19.984 93.0812 19.8133 93.2305 19.6C93.3905 19.3867 93.4705 19.1307 93.4705 18.832C93.4705 18.48 93.3638 18.192 93.1505 17.968C92.9478 17.7333 92.6385 17.552 92.2225 17.424L89.9345 16.688C89.0065 16.4 88.3078 15.968 87.8385 15.392C87.3692 14.816 87.1345 14.1387 87.1345 13.36C87.1345 12.6773 87.2998 12.0747 87.6305 11.552C87.9718 11.0293 88.4412 10.624 89.0385 10.336C89.6465 10.0373 90.3398 9.888 91.1185 9.888C91.8332 9.888 92.4892 10.016 93.0865 10.272C93.6838 10.5173 94.1958 10.864 94.6225 11.312C95.0598 11.7493 95.3852 12.2667 95.5985 12.864L93.8065 13.664C93.5718 13.0667 93.2198 12.608 92.7505 12.288C92.2812 11.9573 91.7372 11.792 91.1185 11.792C90.7558 11.792 90.4358 11.856 90.1585 11.984C89.8812 12.1013 89.6625 12.272 89.5025 12.496C89.3532 12.7093 89.2785 12.9653 89.2785 13.264C89.2785 13.5947 89.3852 13.888 89.5985 14.144C89.8118 14.3893 90.1372 14.5813 90.5745 14.72L92.7665 15.408C93.7158 15.7173 94.4252 16.144 94.8945 16.688C95.3745 17.232 95.6145 17.904 95.6145 18.704C95.6145 19.3867 95.4385 19.9893 95.0865 20.512C94.7345 21.0347 94.2492 21.4453 93.6305 21.744C93.0118 22.0427 92.2918 22.192 91.4705 22.192ZM99.4729 22L103.585 10.08H106.401L110.513 22H108.145L107.297 19.44H102.689L101.825 22H99.4729ZM103.313 17.52H106.673L104.689 11.584H105.297L103.313 17.52ZM120.003 22.192C119.15 22.192 118.36 22.0373 117.635 21.728C116.91 21.4187 116.275 20.9867 115.731 20.432C115.187 19.8773 114.76 19.2267 114.451 18.48C114.152 17.7333 114.003 16.9173 114.003 16.032C114.003 15.1467 114.147 14.3307 114.435 13.584C114.734 12.8267 115.15 12.176 115.683 11.632C116.227 11.0773 116.862 10.6507 117.587 10.352C118.312 10.0427 119.102 9.888 119.955 9.888C120.808 9.888 121.571 10.032 122.243 10.32C122.926 10.608 123.502 10.992 123.971 11.472C124.44 11.9413 124.776 12.4587 124.979 13.024L123.043 13.952C122.819 13.3333 122.44 12.832 121.907 12.448C121.374 12.064 120.723 11.872 119.955 11.872C119.208 11.872 118.547 12.048 117.971 12.4C117.406 12.752 116.963 13.2373 116.643 13.856C116.334 14.4747 116.179 15.2 116.179 16.032C116.179 16.864 116.339 17.5947 116.659 18.224C116.99 18.8427 117.443 19.328 118.019 19.68C118.595 20.032 119.256 20.208 120.003 20.208C120.611 20.208 121.171 20.0907 121.683 19.856C122.195 19.6107 122.606 19.2693 122.915 18.832C123.224 18.384 123.379 17.856 123.379 17.248V16.336L124.371 17.2H119.955V15.36H125.555V16.56C125.555 17.4773 125.4 18.288 125.091 18.992C124.782 19.696 124.36 20.288 123.827 20.768C123.304 21.2373 122.712 21.5947 122.051 21.84C121.39 22.0747 120.707 22.192 120.003 22.192ZM130.277 22V10.08H138.197V12H132.453V15.056H137.877V16.976H132.453V20.08H138.197V22H130.277Z" fill="white"/>
<path fill-rule="evenodd" clip-rule="evenodd" d="M14.6945 10.719C13.7489 10.0872 12.6372 9.75 11.5 9.75V4C13.7745 4 15.9979 4.67446 17.8891 5.9381C19.7802 7.20173 21.2542 8.99779 22.1246 11.0991C22.995 13.2005 23.2228 15.5128 22.779 17.7435C22.3353 19.9743 21.24 22.0234 19.6317 23.6317C18.0234 25.24 15.9743 26.3353 13.7435 26.779C11.5128 27.2228 9.20046 26.995 7.09912 26.1246C4.99779 25.2542 3.20173 23.7802 1.9381 21.8891C0.674464 19.9979 0 17.7745 0 15.5H5.75C5.75 16.6372 6.08724 17.7489 6.71905 18.6945C7.35086 19.6401 8.24889 20.3771 9.29959 20.8123C10.3502 21.2475 11.5064 21.3614 12.6218 21.1395C13.7372 20.9176 14.7617 20.37 15.5659 19.5659C16.37 18.7617 16.9176 17.7372 17.1395 16.6218C17.3614 15.5064 17.2475 14.3502 16.8123 13.2996C16.3771 12.2489 15.6401 11.3509 14.6945 10.719Z" fill="#87C159"/>
<path fill-rule="evenodd" clip-rule="evenodd" d="M5.75 4C5.75 4.7551 5.60127 5.50281 5.31231 6.20043C5.02334 6.89805 4.5998 7.53193 4.06586 8.06587C3.53193 8.59981 2.89805 9.02335 2.20043 9.31231C1.50281 9.60127 0.755099 9.75 2.51338e-07 9.75L0 15.5C1.5102 15.5 3.00561 15.2026 4.40086 14.6246C5.79611 14.0467 7.06387 13.1996 8.1317 12.1317C9.19959 11.0639 10.0467 9.79612 10.6246 8.40086C11.2025 7.00561 11.5 5.5102 11.5 4L5.75 4Z" fill="#87C159"/>
</svg>
