<svg width="23" height="23" viewBox="0 0 23 23" fill="none" xmlns="http://www.w3.org/2000/svg">
<path fill-rule="evenodd" clip-rule="evenodd" d="M14.6945 6.71905C13.7489 6.08724 12.6372 5.75 11.5 5.75V0C13.7745 0 15.9979 0.674464 17.8891 1.9381C19.7802 3.20173 21.2542 4.99779 22.1246 7.09912C22.995 9.20046 23.2228 11.5128 22.779 13.7435C22.3353 15.9743 21.24 18.0234 19.6317 19.6317C18.0234 21.24 15.9743 22.3353 13.7435 22.779C11.5128 23.2228 9.20046 22.995 7.09912 22.1246C4.99779 21.2542 3.20173 19.7802 1.9381 17.8891C0.674464 15.9979 0 13.7745 0 11.5H5.75C5.75 12.6372 6.08724 13.7489 6.71905 14.6945C7.35086 15.6401 8.24889 16.3771 9.29959 16.8123C10.3502 17.2475 11.5064 17.3614 12.6218 17.1395C13.7372 16.9176 14.7617 16.37 15.5659 15.5659C16.37 14.7617 16.9176 13.7372 17.1395 12.6218C17.3614 11.5064 17.2475 10.3502 16.8123 9.29959C16.3771 8.24889 15.6401 7.35086 14.6945 6.71905Z" fill="#87C159"/>
<path fill-rule="evenodd" clip-rule="evenodd" d="M5.75 2.49047e-06C5.75 0.755104 5.60127 1.50281 5.31231 2.20043C5.02334 2.89805 4.5998 3.53193 4.06586 4.06587C3.53193 4.59981 2.89805 5.02335 2.20043 5.31231C1.50281 5.60127 0.755099 5.75 2.51338e-07 5.75L0 11.5C1.5102 11.5 3.00561 11.2026 4.40086 10.6246C5.79611 10.0467 7.06387 9.1996 8.1317 8.13171C9.19959 7.06388 10.0467 5.79612 10.6246 4.40086C11.2025 3.00561 11.5 1.5102 11.5 0L5.75 2.49047e-06Z" fill="#87C159"/>
</svg>
